<svg width="223" height="52" viewBox="0 0 223 52" fill="none" xmlns="http://www.w3.org/2000/svg">
<path fill-rule="evenodd" clip-rule="evenodd" d="M26.8152 0.173623C30.7172 0.665554 34.5899 2.14135 37.9344 4.65888C48.1148 12.2693 50.1098 26.6222 42.3938 36.6344C39.5774 40.3094 35.8514 42.8848 31.7441 44.3317C31.7272 44.3483 31.72 44.3553 31.7115 44.3584C31.7051 44.3606 31.6979 44.3606 31.6854 44.3606C31.524 44.4185 31.3553 44.4691 31.1866 44.5198C31.0179 44.5704 30.8492 44.621 30.6879 44.6789C30.6732 44.6789 30.6585 44.6861 30.6439 44.6934C30.6292 44.7006 30.6145 44.7078 30.5999 44.7078H30.5412C30.3652 44.7657 30.1598 44.8236 29.9544 44.8815C25.1136 46.1836 20.1554 45.8653 15.7547 44.2159L20.2728 38.6021C21.5343 38.8915 22.8546 39.0362 24.2041 39.0072C25.1136 39.0072 26.0231 38.9204 26.9032 38.7468H26.9326C27.0793 38.7179 27.2186 38.6889 27.358 38.66C27.4973 38.6311 27.6367 38.6021 27.7834 38.5732C27.8127 38.5587 27.8494 38.5515 27.8861 38.5442C27.9228 38.537 27.9594 38.5298 27.9888 38.5153C28.4875 38.3996 28.9863 38.2549 29.485 38.0812C29.661 38.0234 29.8371 37.9655 30.0131 37.8787C30.0571 37.8642 30.0938 37.8498 30.1305 37.8353L30.1306 37.8352C30.1672 37.8208 30.2039 37.8063 30.2478 37.7919C37.9051 34.6377 42.0711 26.217 39.636 18.2014C37.7584 12.0957 32.5362 7.89983 26.5512 6.91597C25.9351 6.80022 25.2896 6.74235 24.6735 6.71341C23.4413 6.65554 22.2385 6.74235 21.0356 6.94491C21.0063 6.94491 20.9843 6.95214 20.9622 6.95938C20.9402 6.96661 20.9182 6.97385 20.8889 6.97385L20.4488 7.06066C20.4048 7.07513 20.3608 7.08236 20.3168 7.08959C20.2728 7.09683 20.2288 7.10406 20.1848 7.11853C20.0968 7.11853 19.9794 7.14747 19.8914 7.17641C19.8327 7.19087 19.7667 7.20534 19.7007 7.21981C19.6347 7.23428 19.5687 7.24875 19.51 7.26322C19.4807 7.27769 19.4513 7.28492 19.422 7.29215C19.3927 7.29939 19.3633 7.30662 19.334 7.32109C19.2606 7.35003 19.18 7.37173 19.0993 7.39343C19.0186 7.41514 18.9379 7.43684 18.8646 7.46578C18.8499 7.46578 18.8352 7.47301 18.8206 7.48025C18.8059 7.48748 18.7912 7.49471 18.7766 7.49471C17.427 7.92877 16.1654 8.53645 14.9626 9.31775L10.1218 4.48525C10.3779 4.2747 10.6496 4.09479 10.9256 3.91207C11.0289 3.84368 11.1327 3.77489 11.2366 3.70395C12.9089 2.63328 14.7572 1.76516 16.6349 1.15748H16.7229C16.8915 1.0862 17.0799 1.03443 17.2556 0.986153L17.2556 0.986143L17.2563 0.985965C17.2943 0.97551 17.3318 0.965217 17.3683 0.954925C17.3977 0.940456 17.4343 0.933222 17.471 0.925988C17.5077 0.918754 17.5443 0.911519 17.5737 0.897051C17.6617 0.868114 17.757 0.846411 17.8524 0.824708C17.9477 0.803005 18.0431 0.781302 18.1311 0.752365C18.1898 0.737897 18.2411 0.723429 18.2925 0.708961C18.3438 0.694492 18.3952 0.680023 18.4538 0.665554C18.6299 0.607679 18.7766 0.578742 19.0406 0.549805C19.2166 0.520868 19.3633 0.491931 19.51 0.462994C19.6274 0.462994 19.7447 0.434057 19.8621 0.40512C20.0449 0.353599 20.251 0.32501 20.4389 0.298939L20.5075 0.289371C20.5368 0.289371 20.5662 0.282137 20.5955 0.274903C20.6249 0.267668 20.6542 0.260434 20.6835 0.260434C21.2703 0.173623 21.8864 0.0868114 22.4732 0.0578742C22.5612 0.0289371 22.6492 0.0289371 22.7372 0.0289371C22.8546 0 22.9719 0 23.0893 0H23.4707H24.2041C24.3508 0 24.5048 0.00723428 24.6589 0.0144686C24.8129 0.0217028 24.9669 0.0289371 25.1136 0.0289371C25.1723 0.0578742 25.2603 0.0578742 25.319 0.0578742C25.3777 0.0578742 25.429 0.0651085 25.4803 0.0723428C25.5317 0.0795771 25.583 0.0868114 25.6417 0.0868114H25.7297C25.7884 0.0868114 25.8544 0.0940456 25.9204 0.10128C25.9864 0.108514 26.0524 0.115748 26.1111 0.115748C26.1551 0.115748 26.1918 0.122983 26.2285 0.130217C26.2651 0.137451 26.3018 0.144686 26.3458 0.144686C26.4045 0.144686 26.4632 0.15192 26.5218 0.159154C26.5805 0.166388 26.6392 0.173623 26.6979 0.173623H26.8152ZM62.4905 35.9978C63.3707 36.7791 64.3095 37.1842 65.2777 37.1842H65.4244C66.3632 37.1842 67.302 36.808 68.2115 36.0846C69.1503 35.2454 69.8251 34.059 70.2358 32.5832L73.1697 20.5164H73.9031L76.8663 32.6121C77.1303 34.03 77.8051 35.1586 78.8319 35.9978C79.7708 36.7791 80.7389 37.1842 81.7071 37.1842H81.7364C82.6752 37.1842 83.5847 36.7791 84.4649 36.0556C85.345 35.2165 85.9611 33.9722 86.3132 32.4385L90.1272 8.50751H84.2888L81.6484 27.4613L80.9149 27.4903L77.6584 14.9026C77.4237 13.7451 76.8956 12.8191 76.1035 12.1825C75.2527 11.5748 74.3725 11.2565 73.4924 11.2565C72.6416 11.2565 71.7614 11.5748 70.9106 12.1536C70.1185 12.8191 69.5904 13.7451 69.3557 14.9316L66.0991 27.5481L65.3657 27.5192L62.7839 8.53645H56.9456L60.7009 32.4674C60.9063 33.9432 61.493 35.1297 62.4905 35.9978ZM94.5572 34.7245C96.4936 36.6344 99.0753 37.5893 102.244 37.5893C105.412 37.5893 107.994 36.6344 109.93 34.7245C111.896 32.7568 112.894 30.0657 112.894 26.68C112.894 23.2944 111.896 20.6032 109.93 18.6644C107.994 16.7546 105.412 15.7707 102.244 15.7707C99.0753 15.7707 96.4936 16.7546 94.5572 18.6644C92.5916 20.6032 91.5941 23.2944 91.5941 26.68C91.5941 30.0657 92.5916 32.7858 94.5572 34.7245ZM98.3419 22.3973C99.222 21.5292 100.542 21.0952 102.244 21.0952C103.945 21.0952 105.266 21.5292 106.146 22.3973C107.055 23.2944 107.495 24.7412 107.495 26.68C107.495 28.6477 107.055 30.0946 106.146 30.9917C105.266 31.8598 103.945 32.2938 102.244 32.2938C100.572 32.2938 99.2514 31.8598 98.3419 30.9917C97.4324 30.0946 96.9923 28.6477 96.9923 26.709C96.9923 24.7702 97.4324 23.3233 98.3419 22.3973ZM116.18 37.1842V26.68C116.18 23.5548 117.06 21.0952 118.791 19.3011C120.815 17.2176 123.925 16.1758 128.062 16.1758H129.411V21.9054H128.062C125.509 21.9054 123.837 22.3395 122.927 23.2654C122.282 23.931 121.959 25.0595 121.959 26.68V37.1842H116.18ZM140.002 30.0367L145.606 37.1842V37.1553H152.5L144.286 26.6511L152.5 16.1469H145.606L140.002 23.3233C139.181 24.3651 138.77 25.4936 138.77 26.68C138.77 27.8664 139.181 28.995 140.002 30.0367ZM137.508 8.53645H131.699V37.2131H137.508V8.53645ZM164.822 37.5893C161.654 37.5893 159.072 36.6344 157.136 34.7245C155.17 32.67 154.173 29.892 154.173 26.5064C154.173 23.005 155.17 20.227 157.136 18.2883C159.043 16.6388 161.654 15.7997 164.822 15.7997C167.991 15.7997 170.602 16.6388 172.509 18.3172C174.445 20.227 175.443 22.9761 175.472 26.5064V37.2131H169.663V26.4196C169.663 24.5097 169.223 23.1208 168.402 22.3105C167.58 21.5003 166.377 21.1241 164.793 21.1241C163.238 21.1241 162.006 21.5292 161.214 22.3105C160.392 23.1497 159.952 24.5387 159.952 26.4775C159.952 28.3005 160.363 29.6895 161.184 30.6444C162.035 31.4546 163.238 31.8598 164.793 31.8598C165.585 31.8598 166.319 31.773 166.964 31.6283V37.4736C166.289 37.5604 165.556 37.5893 164.822 37.5893ZM181.046 36.4318C181.78 36.9238 182.631 37.1842 183.511 37.1842H198.297V31.6572H186.269L196.83 23.6706C197.593 23.0918 198.063 22.3395 198.268 21.3845C198.473 20.6032 198.385 19.7641 198.033 18.8959C197.681 18.0857 197.124 17.4201 196.39 16.9282C195.657 16.4363 194.806 16.1758 193.926 16.1758H180.078V21.6739H191.168L180.606 29.6895C179.844 30.2972 179.374 31.0495 179.169 31.9755C178.963 32.7568 179.051 33.596 179.403 34.4641C179.756 35.2743 180.313 35.9399 181.046 36.4318ZM212.35 37.5895C209.182 37.5895 206.6 36.6345 204.663 34.7247C202.698 32.6701 201.7 29.8922 201.7 26.5065C201.7 23.0051 202.698 20.2272 204.663 18.2884C206.57 16.639 209.182 15.7998 212.35 15.7998C215.519 15.7998 218.13 16.639 220.037 18.3173C221.973 20.2272 222.97 22.9762 223 26.5065V37.2133H217.191V26.4197C217.191 24.5099 216.751 23.1209 215.929 22.3107C215.108 21.5004 213.905 21.1242 212.321 21.1242C210.766 21.1242 209.534 21.5294 208.741 22.3107C207.92 23.1498 207.48 24.5388 207.48 26.4776C207.48 28.3006 207.891 29.6896 208.712 30.6445C209.563 31.4548 210.766 31.8599 212.321 31.8599C213.113 31.8599 213.846 31.7731 214.492 31.6284V37.4737C213.817 37.5605 213.083 37.5895 212.35 37.5895ZM36.9369 22.8025C36.9369 26.3328 35.47 29.5448 33.123 31.8887C32.9763 32.0623 32.8002 32.207 32.6242 32.3517C32.527 32.4476 32.4298 32.5236 32.3159 32.6127C32.2923 32.6311 32.268 32.6501 32.2428 32.67C31.7441 33.0751 31.2453 33.4513 30.6879 33.7696L30.2478 34.0301L30.2477 34.0301C29.925 34.2037 29.6023 34.3773 29.2503 34.522L29.0743 34.6088C29.0156 34.6377 28.9569 34.6594 28.8982 34.6811C28.8396 34.7028 28.7809 34.7245 28.7222 34.7535C28.6342 34.7824 28.5535 34.8113 28.4729 34.8403C28.3922 34.8692 28.3115 34.8982 28.2235 34.9271C28.1355 34.956 28.0474 34.985 27.9301 35.0139C27.7834 35.0718 27.666 35.1007 27.5193 35.1297L23.9107 31.5704L20.7422 34.6956L20.3021 35.1297C20.2149 35.1124 20.1276 35.085 20.0465 35.0595C19.9913 35.0421 19.9389 35.0256 19.8914 35.0139C19.8034 34.985 19.7154 34.956 19.598 34.9271C19.334 34.8403 19.0993 34.7535 18.8352 34.6377C18.7912 34.6233 18.7472 34.6016 18.7032 34.5799C18.6592 34.5582 18.6152 34.5365 18.5712 34.522C18.2192 34.3773 17.8965 34.2037 17.5738 34.0301L17.5737 34.0301C17.4461 33.9671 17.3184 33.889 17.202 33.8176C17.1578 33.7906 17.1153 33.7645 17.0749 33.7407L16.2828 33.2198C16.2388 33.1909 16.2021 33.1619 16.1654 33.133C16.1288 33.1041 16.0921 33.0751 16.0481 33.0462L16.048 33.0461C15.9014 32.9304 15.7547 32.8147 15.6374 32.6989L15.6373 32.6989C15.4906 32.5832 15.344 32.4674 15.2266 32.3517C15.0506 32.207 14.9039 32.0623 14.7279 31.8887L14.7279 31.8887C12.3808 29.5448 10.9139 26.3617 10.9139 22.8025C10.9139 21.7028 11.0606 20.6322 11.3246 19.6194L8.65486 16.9861C6.07309 23.5548 8.06809 31.281 14.0238 35.7373C14.9332 36.4318 15.9014 37.0106 16.9282 37.4736L16.0774 38.5153L12.6155 42.798L6.16111 50.6689C5.01691 52.1447 2.87522 52.4341 1.34963 51.3055C-0.146618 50.177 -0.44 48.0646 0.704192 46.5598L7.24662 38.7179C7.12927 38.6021 7.01191 38.4864 6.89456 38.3417H6.9239C-0.586691 30.355 -1.40816 17.9699 5.48633 9.02838C6.13177 8.1892 6.80655 7.4079 7.54 6.68447L19.0993 18.0568C17.8671 19.2721 17.1043 20.9505 17.1043 22.8025C17.1043 24.6544 17.8671 26.3328 19.0993 27.5481L23.9107 22.8025L28.7222 27.5481C29.9251 26.3328 30.7172 24.6255 30.7172 22.8025C30.7172 20.9505 29.9544 19.2721 28.7222 18.0568L33.0936 13.7451C35.47 16.0601 36.9369 19.2721 36.9369 22.8025Z" fill="#2A9D8E"/>
</svg>
