<svg width="223" height="52" viewBox="0 0 223 52" fill="none" xmlns="http://www.w3.org/2000/svg">
<g clip-path="url(#clip0_0_1065)">
<path d="M65.2776 37.1843C64.3095 37.1843 63.3706 36.7791 62.4905 35.9978C61.493 35.1297 60.9062 33.9433 60.7008 32.4675L56.9456 8.53651H62.7839L65.3656 27.5193L66.0991 27.5482L69.3556 14.9316C69.5903 13.7452 70.1184 12.8192 70.9106 12.1536C71.7614 11.5749 72.6415 11.2566 73.4923 11.2566C74.3725 11.2566 75.2526 11.5749 76.1034 12.1826C76.8956 12.8192 77.4237 13.7452 77.6584 14.9027L80.9149 27.4903L81.6484 27.4614L84.2888 8.50757H90.1271L86.3131 32.4386C85.9611 33.9722 85.345 35.2165 84.4648 36.0557C83.5847 36.7791 82.6752 37.1843 81.7364 37.1843H81.707C80.7389 37.1843 79.7707 36.7791 78.8319 35.9978C77.805 35.1587 77.1303 34.0301 76.8662 32.6122L73.9031 20.5165H73.1696L70.2358 32.5833C69.825 34.059 69.1503 35.2455 68.2114 36.0846C67.302 36.8081 66.3631 37.1843 65.4243 37.1843H65.2776Z" fill="#414143"/>
<path d="M102.244 37.5893C99.0752 37.5893 96.4935 36.6344 94.5571 34.7246C92.5915 32.7858 91.594 30.0657 91.594 26.68C91.594 23.2944 92.5915 20.6033 94.5571 18.6645C96.4935 16.7546 99.0752 15.7708 102.244 15.7708C105.412 15.7708 107.994 16.7546 109.93 18.6645C111.896 20.6033 112.894 23.2944 112.894 26.68C112.894 30.0657 111.896 32.7568 109.93 34.7246C107.994 36.6344 105.412 37.5893 102.244 37.5893ZM102.244 21.0952C100.542 21.0952 99.2219 21.5292 98.3418 22.3974C97.4323 23.3233 96.9922 24.7702 96.9922 26.709C96.9922 28.6478 97.4323 30.0946 98.3418 30.9917C99.2513 31.8598 100.571 32.2938 102.244 32.2938C103.945 32.2938 105.266 31.8598 106.146 30.9917C107.055 30.0946 107.495 28.6478 107.495 26.68C107.495 24.7413 107.055 23.2944 106.146 22.3974C105.266 21.5292 103.945 21.0952 102.244 21.0952Z" fill="#414143"/>
<path d="M116.179 37.1841V26.68C116.179 23.5547 117.06 21.0951 118.791 19.301C120.815 17.2175 123.925 16.1758 128.061 16.1758H129.411V21.9053H128.061C125.509 21.9053 123.837 22.3394 122.927 23.2654C122.282 23.9309 121.959 25.0595 121.959 26.68V37.1841H116.179Z" fill="#414143"/>
<path d="M145.606 37.1841L140.002 30.0367C139.181 28.9949 138.77 27.8664 138.77 26.6799C138.77 25.4935 139.181 24.365 140.002 23.3232L145.606 16.1468H152.5L144.286 26.651L152.5 37.1552H145.606V37.1841ZM131.699 8.53638H137.508V37.2131H131.699V8.53638Z" fill="#414143"/>
<path d="M164.822 37.5892C161.654 37.5892 159.072 36.6343 157.136 34.7244C155.17 32.6699 154.172 29.8919 154.172 26.5063C154.172 23.0049 155.17 20.2269 157.136 18.2882C159.043 16.6387 161.654 15.7996 164.822 15.7996C167.991 15.7996 170.602 16.6387 172.509 18.3171C174.445 20.2269 175.443 22.976 175.472 26.5063V37.213H169.663V26.4195C169.663 24.5096 169.223 23.1207 168.402 22.3104C167.58 21.5002 166.377 21.124 164.793 21.124C163.238 21.124 162.006 21.5291 161.214 22.3104C160.392 23.1496 159.952 24.5386 159.952 26.4774C159.952 28.3004 160.363 29.6894 161.184 30.6443C162.035 31.4545 163.238 31.8597 164.793 31.8597C165.585 31.8597 166.319 31.7729 166.964 31.6282V37.4735C166.289 37.5603 165.556 37.5892 164.822 37.5892Z" fill="#2A9D8E"/>
<path d="M183.511 37.1841C182.631 37.1841 181.78 36.9237 181.046 36.4318C180.313 35.9398 179.755 35.2743 179.403 34.464C179.051 33.5959 178.963 32.7567 179.169 31.9754C179.374 31.0495 179.843 30.2971 180.606 29.6894L191.168 21.6738H180.078V16.1758H193.926C194.806 16.1758 195.657 16.4362 196.39 16.9281C197.124 17.4201 197.681 18.0856 198.033 18.8959C198.385 19.764 198.473 20.6032 198.268 21.3845C198.063 22.3394 197.593 23.0918 196.83 23.6705L186.269 31.6571H198.297V37.1841H183.511Z" fill="#2A9D8E"/>
<path d="M212.35 37.5892C209.181 37.5892 206.6 36.6343 204.663 34.7244C202.698 32.6699 201.7 29.8919 201.7 26.5063C201.7 23.0049 202.698 20.2269 204.663 18.2882C206.57 16.6387 209.181 15.7996 212.35 15.7996C215.519 15.7996 218.13 16.6387 220.037 18.3171C221.973 20.2269 222.97 22.976 223 26.5063V37.213H217.191V26.4195C217.191 24.5096 216.751 23.1207 215.929 22.3104C215.108 21.5002 213.905 21.124 212.321 21.124C210.766 21.124 209.534 21.5291 208.741 22.3104C207.92 23.1496 207.48 24.5386 207.48 26.4774C207.48 28.3004 207.891 29.6894 208.712 30.6443C209.563 31.4545 210.766 31.8597 212.321 31.8597C213.113 31.8597 213.846 31.7729 214.492 31.6282V37.4735C213.817 37.5603 213.083 37.5892 212.35 37.5892Z" fill="#2A9D8E"/>
<path d="M37.9344 4.65888C34.5898 2.14135 30.7172 0.665554 26.8152 0.173623C26.7565 0.173623 26.7272 0.173623 26.6978 0.173623C26.5805 0.173623 26.4631 0.144686 26.3458 0.144686C26.2577 0.144686 26.1991 0.115748 26.111 0.115748C25.9937 0.115748 25.847 0.0868114 25.7297 0.0868114C25.7003 0.0868114 25.671 0.0868114 25.6416 0.0868114C25.5243 0.0868114 25.4363 0.0578742 25.3189 0.0578742C25.2602 0.0578742 25.1722 0.0578742 25.1135 0.0289371C24.8202 0.0289371 24.4974 0 24.2041 0C23.9694 0 23.7053 0 23.4706 0C23.3533 0 23.2066 0 23.0892 0C22.9719 0 22.8545 0 22.7372 0.0289371C22.6491 0.0289371 22.5611 0.0289371 22.4731 0.0578742C21.8863 0.0868114 21.2702 0.173623 20.6835 0.260434C20.6248 0.260434 20.5661 0.289371 20.5074 0.289371C20.3021 0.318308 20.0674 0.347245 19.862 0.40512C19.7446 0.434057 19.6273 0.462994 19.5099 0.462994C19.3633 0.491931 19.2166 0.520868 19.0405 0.549805C18.7765 0.578742 18.6298 0.607679 18.4538 0.665554C18.3364 0.694491 18.2484 0.723428 18.131 0.752365C17.955 0.810239 17.7496 0.839176 17.5736 0.897051C17.5149 0.925988 17.4269 0.925988 17.3683 0.954925C17.1629 1.0128 16.9282 1.07067 16.7228 1.15748C16.6935 1.15748 16.6641 1.15748 16.6348 1.15748C14.7571 1.76516 12.9088 2.63328 11.2366 3.70395C10.8552 3.96439 10.4738 4.19588 10.1217 4.48525L14.9625 9.31775C16.1654 8.53645 17.4269 7.92877 18.7765 7.49471C18.8058 7.49471 18.8352 7.46578 18.8645 7.46578C19.0112 7.4079 19.1872 7.37897 19.3339 7.32109C19.3926 7.29215 19.4513 7.29215 19.5099 7.26322C19.6273 7.23428 19.774 7.20534 19.8913 7.17641C19.9794 7.14747 20.0967 7.11853 20.1847 7.11853C20.2727 7.08959 20.3608 7.08959 20.4488 7.06066C20.5955 7.03172 20.7421 7.00278 20.8888 6.97385C20.9475 6.97385 20.9769 6.94491 21.0355 6.94491C22.2384 6.74235 23.4413 6.65554 24.6735 6.71341C25.2896 6.74235 25.935 6.80022 26.5511 6.91597C32.5361 7.89983 37.7583 12.0957 39.636 18.2014C42.0711 26.217 37.905 34.6377 30.2477 37.7919C30.1597 37.8208 30.1011 37.8498 30.013 37.8787C29.837 37.9655 29.661 38.0234 29.4849 38.0812C28.9862 38.2549 28.4874 38.3996 27.9887 38.5153C27.93 38.5442 27.842 38.5442 27.7833 38.5732C27.4899 38.6311 27.2259 38.6889 26.9325 38.7468H26.9032C26.023 38.9204 25.1135 39.0072 24.2041 39.0072C22.8545 39.0362 21.5343 38.8915 20.2727 38.6021L15.7546 44.2159C20.1554 45.8653 25.1135 46.1836 29.9544 44.8815C30.1597 44.8236 30.3651 44.7657 30.5411 44.7078C30.5705 44.7078 30.5705 44.7078 30.5998 44.7078C30.6291 44.7078 30.6585 44.6789 30.6878 44.6789C31.0105 44.5632 31.3626 44.4764 31.6853 44.3606C31.7147 44.3606 31.7147 44.3606 31.744 44.3317C35.8513 42.8848 39.5773 40.3094 42.3938 36.6344C50.1097 26.6222 48.1147 12.2693 37.9344 4.65888Z" fill="#2A9D8E"/>
<path d="M36.9369 22.8024C36.9369 26.3328 35.47 29.5448 33.1229 31.8887L28.7222 27.5481C29.925 26.3328 30.7172 24.6255 30.7172 22.8024C30.7172 20.9505 29.9544 19.2721 28.7222 18.0567L33.0936 13.7451C35.47 16.0601 36.9369 19.2721 36.9369 22.8024Z" fill="#2A9D8E"/>
<path d="M23.9106 22.8025L33.1228 31.8888C32.9761 32.0624 32.8001 32.2071 32.6241 32.3518C32.5067 32.4675 32.3894 32.5544 32.2427 32.6701C31.7439 33.0752 31.2452 33.4514 30.6878 33.7697C30.5411 33.8565 30.3944 33.9433 30.2477 34.0301C29.925 34.2038 29.6022 34.3774 29.2502 34.5221C29.1915 34.551 29.1328 34.58 29.0742 34.6089C28.9568 34.6668 28.8394 34.6957 28.7221 34.7536C28.5461 34.8115 28.3994 34.8693 28.2233 34.9272C28.1353 34.9561 28.0473 34.9851 27.93 35.014C27.7833 35.0719 27.6659 35.1008 27.5192 35.1298L23.9106 31.5705L20.7421 34.6957L20.302 35.1298C20.1553 35.1008 20.0086 35.0429 19.8913 35.014C19.8033 34.9851 19.7153 34.9561 19.5979 34.9272C19.3339 34.8404 19.0991 34.7536 18.8351 34.6378C18.7471 34.6089 18.6591 34.551 18.5711 34.5221C18.219 34.3774 17.8963 34.2038 17.5736 34.0301C17.3975 33.9433 17.2215 33.8276 17.0748 33.7408C16.8108 33.5672 16.5467 33.3935 16.2827 33.2199C16.1947 33.162 16.136 33.1042 16.048 33.0463C15.9013 32.9305 15.7546 32.8148 15.6372 32.699C15.4905 32.5833 15.3439 32.4675 15.2265 32.3518C15.0505 32.2071 14.9038 32.0624 14.7278 31.8888C12.3807 29.5449 10.9138 26.3618 10.9138 22.8025C10.9138 21.7029 11.0605 20.6323 11.3245 19.6195L8.65473 16.9862C6.07297 23.5549 8.06797 31.2811 14.0236 35.7374C14.9331 36.4319 15.9013 37.0107 16.9281 37.4737L16.0773 38.5154L12.6154 42.7981L6.16098 50.669C5.01679 52.1448 2.8751 52.4342 1.34951 51.3056C-0.14674 50.1771 -0.440122 48.0646 0.704069 46.5599L7.2465 38.718C7.12915 38.6022 7.01179 38.4865 6.89444 38.3418H6.92378C-0.586813 30.3551 -1.40828 17.97 5.4862 9.02848C6.13165 8.1893 6.80643 7.408 7.53988 6.68457L19.0991 18.0569C17.8669 19.2722 17.1041 20.9506 17.1041 22.8025C17.1041 24.6545 17.8669 26.3329 19.0991 27.5482L23.9106 22.8025Z" fill="#2A9D8E"/>
</g>
<defs>
<clipPath id="clip0_0_1065">
<rect width="223" height="52" fill="white"/>
</clipPath>
</defs>
</svg>
