<svg width="80" height="80" viewBox="0 0 80 80" fill="none" xmlns="http://www.w3.org/2000/svg">
<circle opacity="0.3" cx="61" cy="61" r="19" fill="#2A9D8E"/>
<g opacity="0.1">
<circle cx="1.5" cy="1.5" r="1.5" fill="#1E2875"/>
<circle cx="8.5" cy="1.5" r="1.5" fill="#1E2875"/>
<circle cx="15.5" cy="1.5" r="1.5" fill="#1E2875"/>
<circle cx="22.5" cy="1.5" r="1.5" fill="#1E2875"/>
<circle cx="29.5" cy="1.5" r="1.5" fill="#1E2875"/>
<circle cx="1.5" cy="7.5" r="1.5" fill="#1E2875"/>
<circle cx="8.5" cy="7.5" r="1.5" fill="#1E2875"/>
<circle cx="15.5" cy="7.5" r="1.5" fill="#1E2875"/>
<circle cx="22.5" cy="7.5" r="1.5" fill="#1E2875"/>
<circle cx="29.5" cy="7.5" r="1.5" fill="#1E2875"/>
<circle cx="1.5" cy="13.5" r="1.5" fill="#1E2875"/>
<circle cx="8.5" cy="13.5" r="1.5" fill="#1E2875"/>
<circle cx="15.5" cy="13.5" r="1.5" fill="#1E2875"/>
<circle cx="22.5" cy="13.5" r="1.5" fill="#1E2875"/>
<circle cx="29.5" cy="13.5" r="1.5" fill="#1E2875"/>
<circle cx="1.5" cy="19.5" r="1.5" fill="#1E2875"/>
<circle cx="8.5" cy="19.5" r="1.5" fill="#1E2875"/>
<circle cx="15.5" cy="19.5" r="1.5" fill="#1E2875"/>
<circle cx="22.5" cy="19.5" r="1.5" fill="#1E2875"/>
<circle cx="29.5" cy="19.5" r="1.5" fill="#1E2875"/>
<circle cx="1.5" cy="25.5" r="1.5" fill="#1E2875"/>
<circle cx="8.5" cy="25.5" r="1.5" fill="#1E2875"/>
<circle cx="15.5" cy="25.5" r="1.5" fill="#1E2875"/>
<circle cx="22.5" cy="25.5" r="1.5" fill="#1E2875"/>
<circle cx="29.5" cy="25.5" r="1.5" fill="#1E2875"/>
<circle cx="1.5" cy="31.5" r="1.5" fill="#1E2875"/>
<circle cx="8.5" cy="31.5" r="1.5" fill="#1E2875"/>
<circle cx="15.5" cy="31.5" r="1.5" fill="#1E2875"/>
<circle cx="22.5" cy="31.5" r="1.5" fill="#1E2875"/>
<circle cx="29.5" cy="31.5" r="1.5" fill="#1E2875"/>
</g>
<path d="M28.6667 14.1667V21.9167" stroke="#2A9D8E" stroke-width="4" stroke-miterlimit="10" stroke-linecap="round" stroke-linejoin="round"/>
<path d="M49.3333 14.1667V21.9167" stroke="#2A9D8E" stroke-width="4" stroke-miterlimit="10" stroke-linecap="round" stroke-linejoin="round"/>
<path d="M49.3333 18.0417C57.9358 18.5067 62.25 21.7876 62.25 33.9292V49.8942C62.25 60.5376 59.6667 65.8592 46.75 65.8592H31.25C18.3333 65.8592 15.75 60.5376 15.75 49.8942V33.9292C15.75 21.7876 20.0642 18.5326 28.6667 18.0417H49.3333Z" stroke="#2A9D8E" stroke-width="4" stroke-miterlimit="10" stroke-linecap="round" stroke-linejoin="round"/>
<path d="M61.6041 54.4666H16.3958" stroke="#2A9D8E" stroke-width="4" stroke-miterlimit="10" stroke-linecap="round" stroke-linejoin="round"/>
<path d="M45.4964 48.2088C43.8574 48.2088 42.4446 47.8204 41.2582 47.0437C40.0717 46.2609 39.1574 45.1386 38.5152 43.6769C37.873 42.2091 37.555 40.4447 37.5611 38.3836C37.5672 36.3226 37.8883 34.5735 38.5244 33.1363C39.1665 31.6929 40.0778 30.5951 41.2582 29.8429C42.4446 29.0845 43.8574 28.7053 45.4964 28.7053C47.1355 28.7053 48.5482 29.0845 49.7347 29.8429C50.9273 30.5951 51.8447 31.6929 52.4868 33.1363C53.129 34.5796 53.447 36.3287 53.4409 38.3836C53.4409 40.4508 53.1198 42.2183 52.4777 43.6861C51.8355 45.1539 50.9212 46.2761 49.7347 47.0529C48.5544 47.8235 47.1416 48.2088 45.4964 48.2088ZM45.4964 44.4934C46.475 44.4934 47.267 43.9949 47.8724 42.9981C48.4779 41.9951 48.7776 40.4569 48.7715 38.3836C48.7715 37.0259 48.6339 35.9067 48.3586 35.026C48.0834 34.1393 47.7012 33.4787 47.2119 33.0445C46.7227 32.6103 46.1508 32.3932 45.4964 32.3932C44.524 32.3932 43.7381 32.8855 43.1388 33.8702C42.5394 34.8487 42.2367 36.3532 42.2306 38.3836C42.2245 39.7597 42.3559 40.9003 42.625 41.8055C42.9003 42.7106 43.2856 43.3864 43.7809 43.8329C44.2763 44.2732 44.8482 44.4934 45.4964 44.4934Z" fill="#2A9D8E"/>
<path d="M33.5728 28.9622V47.75H29.041V33.2004H28.9309L24.7293 35.7691V31.8427L29.3621 28.9622H33.5728Z" fill="#2A9D8E"/>
</svg>
