<svg width="80" height="80" viewBox="0 0 80 80" fill="none" xmlns="http://www.w3.org/2000/svg">
<circle opacity="0.3" cx="61" cy="61" r="19" fill="#2A9D8E"/>
<g opacity="0.1">
<circle cx="1.5" cy="1.5" r="1.5" fill="#1E2875"/>
<circle cx="8.5" cy="1.5" r="1.5" fill="#1E2875"/>
<circle cx="15.5" cy="1.5" r="1.5" fill="#1E2875"/>
<circle cx="22.5" cy="1.5" r="1.5" fill="#1E2875"/>
<circle cx="29.5" cy="1.5" r="1.5" fill="#1E2875"/>
<circle cx="1.5" cy="7.5" r="1.5" fill="#1E2875"/>
<circle cx="8.5" cy="7.5" r="1.5" fill="#1E2875"/>
<circle cx="15.5" cy="7.5" r="1.5" fill="#1E2875"/>
<circle cx="22.5" cy="7.5" r="1.5" fill="#1E2875"/>
<circle cx="29.5" cy="7.5" r="1.5" fill="#1E2875"/>
<circle cx="1.5" cy="13.5" r="1.5" fill="#1E2875"/>
<circle cx="8.5" cy="13.5" r="1.5" fill="#1E2875"/>
<circle cx="15.5" cy="13.5" r="1.5" fill="#1E2875"/>
<circle cx="22.5" cy="13.5" r="1.5" fill="#1E2875"/>
<circle cx="29.5" cy="13.5" r="1.5" fill="#1E2875"/>
<circle cx="1.5" cy="19.5" r="1.5" fill="#1E2875"/>
<circle cx="8.5" cy="19.5" r="1.5" fill="#1E2875"/>
<circle cx="15.5" cy="19.5" r="1.5" fill="#1E2875"/>
<circle cx="22.5" cy="19.5" r="1.5" fill="#1E2875"/>
<circle cx="29.5" cy="19.5" r="1.5" fill="#1E2875"/>
<circle cx="1.5" cy="25.5" r="1.5" fill="#1E2875"/>
<circle cx="8.5" cy="25.5" r="1.5" fill="#1E2875"/>
<circle cx="15.5" cy="25.5" r="1.5" fill="#1E2875"/>
<circle cx="22.5" cy="25.5" r="1.5" fill="#1E2875"/>
<circle cx="29.5" cy="25.5" r="1.5" fill="#1E2875"/>
<circle cx="1.5" cy="31.5" r="1.5" fill="#1E2875"/>
<circle cx="8.5" cy="31.5" r="1.5" fill="#1E2875"/>
<circle cx="15.5" cy="31.5" r="1.5" fill="#1E2875"/>
<circle cx="22.5" cy="31.5" r="1.5" fill="#1E2875"/>
<circle cx="29.5" cy="31.5" r="1.5" fill="#1E2875"/>
</g>
<path d="M47.1267 20.6055C47.0475 20.5975 46.9525 20.5975 46.8654 20.6055C44.9812 20.5421 43.485 18.9984 43.485 17.0984C43.485 15.1588 45.0525 13.5834 47 13.5834C48.9396 13.5834 50.515 15.1588 50.515 17.0984C50.5071 18.9984 49.0108 20.5421 47.1267 20.6055Z" stroke="#2A9D8E" stroke-width="3" stroke-linecap="round" stroke-linejoin="round"/>
<path d="M43.1683 23.5266C41.2525 24.8091 41.2525 26.8991 43.1683 28.1737C45.3454 29.6304 48.9158 29.6304 51.0929 28.1737C53.0087 26.8912 53.0087 24.8012 51.0929 23.5266C48.9237 22.0779 45.3533 22.0779 43.1683 23.5266Z" stroke="#2A9D8E" stroke-width="3" stroke-linecap="round" stroke-linejoin="round"/>
<path d="M28.515 59.5112C28.4275 59.5025 28.3225 59.5025 28.2262 59.5112C26.1437 59.4412 24.49 57.735 24.49 55.635C24.49 53.4912 26.2225 51.75 28.375 51.75C30.5187 51.75 32.26 53.4912 32.26 55.635C32.2512 57.735 30.5975 59.4412 28.515 59.5112Z" stroke="#2A9D8E" stroke-width="3" stroke-linecap="round" stroke-linejoin="round"/>
<path d="M34.8587 53.5C36.5562 53.5 37.9212 54.8738 37.9212 56.5625C37.9212 58.2162 36.6087 59.5637 34.9725 59.625C34.9025 59.6163 34.8237 59.6163 34.745 59.625" stroke="#2A9D8E" stroke-width="3" stroke-linecap="round" stroke-linejoin="round"/>
<path d="M24.14 62.74C22.0225 64.1575 22.0225 66.4675 24.14 67.8762C26.5463 69.4862 30.4925 69.4862 32.8988 67.8762C35.0163 66.4587 35.0163 64.1488 32.8988 62.74C30.5013 61.1388 26.555 61.1388 24.14 62.74Z" stroke="#2A9D8E" stroke-width="3" stroke-linecap="round" stroke-linejoin="round"/>
<path d="M36.5475 67.5C37.1775 67.3687 37.7725 67.115 38.2625 66.7387C39.6275 65.715 39.6275 64.0262 38.2625 63.0025C37.7812 62.635 37.195 62.39 36.5737 62.25" stroke="#2A9D8E" stroke-width="3" stroke-linecap="round" stroke-linejoin="round"/>
<path d="M43.1333 40.5112C43.05 40.5025 42.95 40.5025 42.8583 40.5112C40.875 40.4412 39.3 38.735 39.3 36.635C39.3 34.4912 40.95 32.75 43 32.75C45.0417 32.75 46.7 34.4912 46.7 36.635C46.6917 38.735 45.1167 40.4412 43.1333 40.5112Z" stroke="#2A9D8E" stroke-width="3" stroke-linecap="round" stroke-linejoin="round"/>
<path d="M49.175 34.5C50.7917 34.5 52.0917 35.8738 52.0917 37.5625C52.0917 39.2162 50.8417 40.5637 49.2833 40.625C49.2167 40.6163 49.1417 40.6163 49.0667 40.625" stroke="#2A9D8E" stroke-width="3" stroke-linecap="round" stroke-linejoin="round"/>
<path d="M38.9667 43.74C36.95 45.1575 36.95 47.4675 38.9667 48.8762C41.2583 50.4862 45.0167 50.4862 47.3083 48.8762C49.325 47.4587 49.325 45.1488 47.3083 43.74C45.025 42.1388 41.2667 42.1388 38.9667 43.74Z" stroke="#2A9D8E" stroke-width="3" stroke-linecap="round" stroke-linejoin="round"/>
<path d="M50.7833 48.5C51.3833 48.3687 51.95 48.115 52.4167 47.7387C53.7167 46.715 53.7167 45.0262 52.4167 44.0025C51.9583 43.635 51.4 43.39 50.8083 43.25" stroke="#2A9D8E" stroke-width="3" stroke-linecap="round" stroke-linejoin="round"/>
<path d="M58.1267 58.6055C58.0475 58.5975 57.9525 58.5975 57.8654 58.6055C55.9812 58.5421 54.485 56.9984 54.485 55.0984C54.485 53.1588 56.0525 51.5834 58 51.5834C59.9396 51.5834 61.515 53.1588 61.515 55.0984C61.5071 56.9984 60.0108 58.5421 58.1267 58.6055Z" stroke="#2A9D8E" stroke-width="3" stroke-linecap="round" stroke-linejoin="round"/>
<path d="M54.1683 61.5266C52.2525 62.8091 52.2525 64.8991 54.1683 66.1737C56.3454 67.6304 59.9158 67.6304 62.0929 66.1737C64.0087 64.8912 64.0087 62.8012 62.0929 61.5266C59.9237 60.0779 56.3533 60.0779 54.1683 61.5266Z" stroke="#2A9D8E" stroke-width="3" stroke-linecap="round" stroke-linejoin="round"/>
<path d="M26.125 15.5417V23.4584C26.125 25.8334 24.9375 27.4167 22.1667 27.4167H15.8333C13.0625 27.4167 11.875 25.8334 11.875 23.4584V15.5417C11.875 13.1667 13.0625 11.5834 15.8333 11.5834H22.1667C24.9375 11.5834 26.125 13.1667 26.125 15.5417Z" stroke="#2A9D8E" stroke-width="3" stroke-miterlimit="10" stroke-linecap="round" stroke-linejoin="round"/>
<path d="M20.9792 13.5625V15.1458C20.9792 16.0167 21.6917 16.7292 22.5625 16.7292H24.1458" stroke="#2A9D8E" stroke-width="3" stroke-miterlimit="10" stroke-linecap="round" stroke-linejoin="round"/>
<path d="M15.8333 20.2916H19" stroke="#2A9D8E" stroke-width="2" stroke-miterlimit="10" stroke-linecap="round" stroke-linejoin="round"/>
<path d="M15.8333 23.4584H22.1667" stroke="#2A9D8E" stroke-width="2" stroke-miterlimit="10" stroke-linecap="round" stroke-linejoin="round"/>
<path d="M31.5 21H39.2778M57.4259 21V21C62.4374 21 66.5 25.0626 66.5 30.0741V32.9259C66.5 37.9374 62.4374 42 57.4259 42V42" stroke="#2A9D8E" stroke-width="3" stroke-linejoin="round"/>
<path d="M33.5 41H20.5C14.9772 41 10.5 45.4772 10.5 51V53.0385C10.5 57.4355 14.0645 61 18.4615 61V61" stroke="#2A9D8E" stroke-width="3" stroke-linejoin="round"/>
<path d="M40.5 61H50.5" stroke="#2A9D8E" stroke-width="3" stroke-linejoin="round"/>
</svg>
